<svg xmlns="http://www.w3.org/2000/svg" viewBox="0 0 23 24"><g data-name="24"><path d="M23 12.27a14 14 0 0 0-.19-2.27H12v4h6.09a6.75 6.75 0 0 1-2.36 4.09v3h3.79A11.87 11.87 0 0 0 23 12.27Z" style="fill:#4285f4"/><path d="M11.75 24a11.08 11.08 0 0 0 7.77-2.91l-3.79-3a6.94 6.94 0 0 1-4 1.16 7 7 0 0 1-6.59-5H1.26v3.09A11.72 11.72 0 0 0 11.75 24Z" style="fill:#34a853"/><path d="M5.16 14.29a7.09 7.09 0 0 1 0-4.58V6.62h-3.9a12.12 12.12 0 0 0 0 10.76Z" style="fill:#fabb05"/><path d="M11.75 4.75a6.33 6.33 0 0 1 4.51 1.8l3.35-3.42A11.15 11.15 0 0 0 11.75 0 11.72 11.72 0 0 0 1.26 6.62l3.9 3.09a7 7 0 0 1 6.59-4.96Z" style="fill:#e94235"/></g></svg>