<svg version="1.1" id="Layer_1" xmlns="http://www.w3.org/2000/svg" xmlns:xlink="http://www.w3.org/1999/xlink" x="0" y="0" viewBox="0 0 376 64" style="enable-background:new 0 0 376 64" xml:space="preserve"><style>.st0{fill:#425066}</style><path class="st0" d="M88.5 21.1h-10v27.7h-5.6V21.1h-10v-4.5h25.6v4.5z"/><path class="st0" d="M95.2 49.2c-3.4 0-6.2-1.1-8.3-3.2-2.1-2.1-3.2-5-3.2-8.6v-.7c0-2.2.4-4.4 1.4-6.4.9-1.8 2.2-3.3 3.9-4.4 1.7-1.1 3.6-1.6 5.6-1.6 3.3 0 5.8 1 7.6 3.1s2.7 5 2.7 8.8v2.2H89.2c.1 1.8.8 3.4 2 4.7 1.2 1.2 2.7 1.8 4.4 1.7 2.4.1 4.6-1.1 6-3l2.9 2.8c-1 1.4-2.3 2.6-3.8 3.3-1.8 1-3.6 1.4-5.5 1.3zm-.6-20.5c-1.4-.1-2.7.5-3.6 1.5-1 1.2-1.6 2.7-1.7 4.3h10.3v-.4c-.1-1.8-.6-3.2-1.4-4.1-1-.8-2.3-1.4-3.6-1.3zm19.4-3.9.2 2.8c1.7-2.1 4.3-3.3 7-3.2 5 0 7.5 2.9 7.6 8.6v15.8h-5.4V33.3c0-1.5-.3-2.6-1-3.4-.7-.7-1.7-1.1-3.2-1.1-2.1-.1-4 1.1-4.9 2.9v17h-5.4v-24l5.1.1zm32.2 17.5c0-.9-.4-1.7-1.2-2.2-1.2-.7-2.6-1.1-3.9-1.3-1.6-.3-3.1-.8-4.6-1.5-2.7-1.3-4-3.2-4-5.6 0-2 1-4 2.6-5.2 1.7-1.4 4-2.1 6.6-2.1 2.9 0 5.2.7 6.9 2.1 1.7 1.3 2.7 3.4 2.6 5.5h-5.4c0-1-.4-1.9-1.2-2.6-.9-.7-1.9-1.1-3.1-1-1 0-2 .2-2.9.8-.7.5-1.1 1.3-1.1 2.2 0 .8.4 1.5 1 1.9.7.5 2.1.9 4.2 1.4 1.7.3 3.4.9 5 1.7 1.1.5 2 1.3 2.7 2.3.6 1 .9 2.1.9 3.3 0 2.1-1 4-2.7 5.2-1.8 1.3-4.1 2-7 2-1.8 0-3.6-.3-5.2-1.1-1.4-.6-2.7-1.6-3.6-2.9-.8-1.2-1.3-2.6-1.3-4h5.2c0 1.1.5 2.2 1.4 2.9 1 .7 2.3 1.1 3.5 1 1.4 0 2.5-.3 3.2-.8 1-.4 1.4-1.2 1.4-2zm8.1-5.7c0-2.2.4-4.4 1.4-6.3.9-1.8 2.2-3.3 3.9-4.3 1.8-1 3.8-1.6 5.8-1.5 3.2 0 5.9 1 7.9 3.1s3.1 4.8 3.3 8.3v1.3c0 2.2-.4 4.3-1.4 6.3-.8 1.8-2.2 3.3-3.9 4.3-1.8 1-3.8 1.6-5.9 1.5-3.4 0-6.1-1.1-8.1-3.4-2-2.2-3-5.2-3.1-9l.1-.3zm5.3.5c0 2.5.5 4.4 1.5 5.8 1.8 2.3 5.1 2.8 7.5 1 .4-.3.7-.6 1-1 1-1.4 1.5-3.5 1.5-6.2 0-2.4-.5-4.3-1.6-5.8-1.7-2.3-5-2.8-7.4-1.1-.4.3-.8.7-1.1 1-.8 1.4-1.4 3.5-1.4 6.3zm33.1-7.3c-.7-.1-1.5-.2-2.2-.2-2.5 0-4.1.9-5 2.8v16.4h-5.4v-24h5.1l.1 2.7c1.3-2.1 3.1-3.1 5.4-3.1.6 0 1.3.1 1.9.3l.1 5.1zm22.5 5.3h-13v13.7h-5.6V16.6h20.5v4.5h-14.9v9.6h13v4.4zm10.7 13.7h-5.4V16.5h5.4v32.3zm3.9-12.2c0-2.2.4-4.4 1.4-6.3.9-1.8 2.2-3.3 3.9-4.3 1.8-1 3.8-1.6 5.8-1.5 3.2 0 5.9 1 7.9 3.1s3.1 4.8 3.3 8.3v1.3c0 2.2-.4 4.3-1.3 6.3-.8 1.8-2.2 3.3-3.9 4.3-1.8 1-3.8 1.6-5.9 1.5-3.4 0-6.1-1.1-8.1-3.4-2-2.2-3.1-5.2-3.1-9v-.3zm5.4.5c0 2.5.5 4.4 1.5 5.8 1 1.4 2.6 2.2 4.3 2.1 1.7.1 3.3-.7 4.2-2.1 1-1.4 1.5-3.5 1.5-6.2 0-2.4-.5-4.3-1.6-5.8-1.7-2.3-5-2.8-7.4-1.1-.4.3-.8.7-1.1 1-.9 1.4-1.4 3.5-1.4 6.3zm41.2 4.3 3.8-16.5h5.2l-6.5 24h-4.4l-5.1-16.5-5.1 16.5h-4.4l-6.6-24h5.3l3.9 16.4 4.9-16.4h4.1l4.9 16.5zM299.5 48.8V16.6h9.5c3.4 0 6.1.7 7.9 2.1s2.7 3.5 2.7 6.3c0 1.7-.5 3.1-1.4 4.3-.9 1.2-2.1 2.1-3.7 2.6 1.9.4 3.4 1.3 4.5 2.8 1.1 1.4 1.7 3.1 1.7 5 0 2.8-.9 5.1-2.8 6.7-1.8 1.6-4.4 2.4-7.7 2.4h-10.7zm2.8-17.8h7.4c2.3 0 4-.6 5.3-1.6 1.2-1 1.9-2.5 1.9-4.5 0-2.1-.6-3.6-1.9-4.6s-3.2-1.5-5.8-1.5h-6.9V31zm0 2.3v13.2h8.2c2.3 0 4.2-.6 5.5-1.8 1.4-1.2 2-2.8 2-4.9 0-2-.7-3.6-2-4.7-1.3-1.2-3.1-1.7-5.4-1.7l-8.3-.1zM327.6 48.8h-2.7V16.5h2.7v32.3zM331.5 36.5c0-2.3.4-4.4 1.3-6.2s2.2-3.3 3.8-4.3c1.6-1 3.5-1.5 5.5-1.5 3.2 0 5.8 1.1 7.7 3.3 2 2.2 3 5.2 3 8.9v.6c0 2.3-.4 4.4-1.3 6.2-.9 1.9-2.1 3.3-3.8 4.3-1.7 1-3.5 1.5-5.5 1.5-3.2 0-5.7-1.1-7.7-3.3s-3-5.2-3-8.9v-.6zm2.7.8c0 2.9.7 5.2 2.2 7s3.4 2.8 5.8 2.8 4.3-.9 5.8-2.8c1.5-1.8 2.2-4.3 2.2-7.3v-.5c0-1.8-.3-3.5-1-5s-1.6-2.7-2.9-3.5c-1.2-.8-2.6-1.2-4.2-1.2-2.4 0-4.3.9-5.8 2.8s-2.2 4.3-2.2 7.3v.4h.1zM355.9 36.7c0-3.7.8-6.7 2.5-8.9s3.9-3.3 6.8-3.3c3.3 0 5.7 1.3 7.4 3.9l.1-3.4h2.5v23.4c0 3.1-.9 5.5-2.6 7.3s-4.1 2.7-7 2.7c-1.7 0-3.3-.4-4.8-1.1s-2.7-1.7-3.6-3l1.5-1.6c1.9 2.3 4.1 3.4 6.7 3.4 2.2 0 3.9-.7 5.2-2 1.2-1.3 1.9-3.1 1.9-5.4v-3c-1.7 2.4-4.2 3.5-7.4 3.5-2.8 0-5-1.1-6.7-3.3s-2.5-5.2-2.5-9v-.2zm2.7.4c0 3.1.6 5.5 1.8 7.2 1.2 1.8 2.9 2.6 5.2 2.6 3.3 0 5.6-1.5 6.9-4.4v-11c-.6-1.5-1.5-2.7-2.7-3.5s-2.6-1.2-4.2-1.2c-2.2 0-4 .9-5.2 2.6-1.2 1.8-1.8 4.3-1.8 7.7z"/><defs><path id="SVGID_1_" d="M47.8 17.6 25.3 4.8v52.6l9-5.2V37.4l6.8 3.9-.1-10.1-6.7-3.9v-5.9l13.5 7.9z"/></defs><clipPath id="SVGID_2_"><use xlink:href="#SVGID_1_" style="overflow:visible"/></clipPath><g style="clip-path:url(#SVGID_2_)"><linearGradient id="SVGID_3_" gradientUnits="userSpaceOnUse" x1="-1.3" y1="-995.05" x2="53.9" y2="-995.05" gradientTransform="matrix(1 0 0 -1 0 -964)"><stop offset="0" style="stop-color:#ff6f00"/><stop offset="1" style="stop-color:#ffa800"/></linearGradient><path d="M-1.3 4.6h55.2v52.9H-1.3V4.6z" style="fill:url(#SVGID_3_)"/></g><g><defs><path id="SVGID_4_" d="M.8 17.6 23.3 4.8v52.6l-9-5.2V21.4L.8 29.3z"/></defs><clipPath id="SVGID_5_"><use xlink:href="#SVGID_4_" style="overflow:visible"/></clipPath><g style="clip-path:url(#SVGID_5_)"><linearGradient id="SVGID_6_" gradientUnits="userSpaceOnUse" x1="-1.6" y1="-995.05" x2="53.6" y2="-995.05" gradientTransform="matrix(1 0 0 -1 0 -964)"><stop offset="0" style="stop-color:#ff6f00"/><stop offset="1" style="stop-color:#ffa800"/></linearGradient><path d="M-1.6 4.6h55.2v52.9H-1.6V4.6z" style="fill:url(#SVGID_6_)"/></g></g></svg>